<?xml version="1.0" encoding="utf-8"?>
<!-- Generator: Adobe Illustrator 27.5.0, SVG Export Plug-In . SVG Version: 6.00 Build 0)  -->
<svg version="1.1" id="katman_1" xmlns="http://www.w3.org/2000/svg" xmlns:xlink="http://www.w3.org/1999/xlink" x="0px" y="0px"
	 viewBox="0 0 841.89 595.28" style="enable-background:new 0 0 841.89 595.28;" xml:space="preserve">
<g>
	<path d="M113.32,307.65H72.34v9.99h50.98C123.32,312.12,118.85,307.65,113.32,307.65L113.32,307.65z"/>
	<path d="M82.45,246.92H72.33v9.99h20.11C92.44,251.39,87.97,246.92,82.45,246.92z"/>
	<path d="M72.33,297.4h40.69c0-5.52-4.47-9.99-9.99-9.99h-30.7C72.33,287.41,72.33,297.4,72.33,297.4z"/>
	<path d="M123.66,327.9H72.33v9.99h61.32C133.65,332.37,129.18,327.9,123.66,327.9z"/>
	<path d="M105.7,266.9h59.32c-2.1-5.82-7.66-9.98-14.19-9.99h-0.07c-3.58,0-58.33,0-58.33,0c0.06,5.41,7.33,9.99,13.26,9.99H105.7z"
		/>
	<path d="M148.06,297.4h-0.04c-8.13,0-35,0-35,0c0.06,5.41,7.33,9.99,13.26,9.99h41.88c-3.52-4.63-8.6-8-14.45-9.34
		c-1.81-0.42-3.7-0.64-5.64-0.64L148.06,297.4z"/>
	<path d="M123.32,317.64c0.06,5.41,7.33,9.99,13.26,9.99h36.22c0.32-1.61,0.49-3.28,0.49-4.98c0-1.7-0.17-3.39-0.5-5h-49.47V317.64z
		"/>
	<path d="M146.33,347.89c0,0,0.83,0.02,1.66,0.02c1,0,1.66-0.05,1.67-0.05c7.54-0.49,14.22-4.3,18.52-9.97h-34.53
		C133.7,343.13,140.51,347.61,146.33,347.89L146.33,347.89z"/>
	<path d="M92.72,267.16H72.31v9.99h30.4C102.71,271.63,98.24,267.16,92.72,267.16z"/>
	<path d="M115.97,287.14h34.83c6.55,0,12.12-4.17,14.22-9.99h-62.31C102.77,282.56,110.04,287.14,115.97,287.14z"/>
</g>
<g>
	<path d="M231.82,278.47c8.12,0,15.03,2.96,20.75,8.87c5.72,5.91,8.58,13.12,8.58,21.62s-2.86,15.71-8.58,21.62
		c-5.72,5.91-12.64,8.87-20.75,8.87c-9.58,0-16.89-3.83-21.91-11.48v9.97h-10.09v-81.15h4.31c3.19,0,5.78,2.59,5.78,5.78v27.38
		C214.93,282.3,222.24,278.47,231.82,278.47z M230.54,329.71c5.8,0,10.67-1.99,14.61-5.97s5.91-8.91,5.91-14.78
		s-1.97-10.8-5.91-14.78s-8.81-5.97-14.61-5.97s-10.78,1.99-14.72,5.97s-5.91,8.91-5.91,14.78s1.97,10.8,5.91,14.78
		S224.67,329.71,230.54,329.71z"/>
	<path d="M283.29,289.71c3.32-7.19,9.35-10.78,18.09-10.78v10.55c-4.95-0.23-9.2,1.08-12.75,3.94c-3.56,2.86-5.33,7.46-5.33,13.8
		v30.72h-10.09v-57.97h4.31c3.19,0,5.78,2.59,5.78,5.78v3.96H283.29z"/>
	<path d="M357.03,330.64c-5.95,5.87-13.18,8.81-21.68,8.81s-15.71-2.94-21.62-8.81c-5.91-5.87-8.87-13.1-8.87-21.68
		c0-8.58,2.96-15.81,8.87-21.68s13.12-8.81,21.62-8.81s15.73,2.94,21.68,8.81c5.95,5.87,8.93,13.1,8.93,21.68
		C365.96,317.54,362.98,324.77,357.03,330.64z M335.35,329.6c5.8,0,10.67-1.97,14.61-5.91c3.94-3.94,5.91-8.85,5.91-14.72
		c0-5.87-1.97-10.78-5.91-14.72s-8.81-5.91-14.61-5.91s-10.55,1.97-14.49,5.91s-5.91,8.85-5.91,14.72c0,5.87,1.97,10.78,5.91,14.72
		S329.63,329.6,335.35,329.6z"/>
	<path d="M448.23,279.97h5.11l-16.89,57.97h-10.32l-13.83-43.47l-13.74,43.47h-10.79l-17.06-57.97h6.22c2.57,0,4.84,1.7,5.55,4.17
		l11.54,39.88l13.68-44.05h9.95l13.65,44.07l11.38-39.87c0.71-2.48,2.98-4.19,5.56-4.19L448.23,279.97z"/>
	<path d="M474.31,328.32h25.06c3.19,0,5.78,2.59,5.78,5.78v3.84H460.6v-6.78l29.64-41.57h-22.63c-3.19,0-5.78-2.59-5.78-5.78v-3.84
		h42.2v6.64l-29.73,41.7L474.31,328.32z"/>
	<path d="M588.75,279.97h5.11l-16.89,57.97h-10.32l-13.83-43.47l-13.74,43.47h-10.79l-17.06-57.97h6.22c2.57,0,4.84,1.7,5.55,4.17
		l11.54,39.88l13.68-44.05h9.95l13.65,44.07l11.38-39.87c0.71-2.48,2.98-4.19,5.56-4.19L588.75,279.97z"/>
	<path d="M607.78,313.6c1,5.18,3.38,9.2,7.13,12.06c3.75,2.86,8.37,4.29,13.85,4.29c7.65,0,13.22-2.82,16.7-8.46l8.58,4.87
		c-5.64,8.74-14.14,13.1-25.51,13.1c-9.2,0-16.68-2.88-22.43-8.64c-5.76-5.76-8.64-13.04-8.64-21.85s2.82-16,8.46-21.8
		c5.64-5.8,12.95-8.7,21.91-8.7c8.5,0,15.44,3,20.81,8.99s8.06,13.2,8.06,21.62c0,1.47-0.12,2.98-0.35,4.52h-48.58H607.78z
		 M627.84,287.98c-5.41,0-9.89,1.53-13.45,4.58c-3.56,3.05-5.76,7.13-6.61,12.23h38.72c-0.85-5.49-3.01-9.66-6.49-12.52
		C636.53,289.41,632.47,287.98,627.84,287.98z"/>
	<path d="M721.96,279.97h4.31v57.97h-10.09v-9.97c-5.03,7.65-12.33,11.48-21.91,11.48c-8.12,0-15.03-2.96-20.75-8.87
		s-8.58-13.12-8.58-21.62s2.86-15.71,8.58-21.62c5.72-5.91,12.64-8.87,20.75-8.87c9.58,0,16.89,3.83,21.91,11.48v-4.19
		C716.18,282.57,718.77,279.98,721.96,279.97L721.96,279.97z M695.54,329.71c5.87,0,10.78-1.99,14.72-5.97
		c3.94-3.98,5.91-8.91,5.91-14.78s-1.97-10.8-5.91-14.78s-8.85-5.97-14.72-5.97s-10.67,1.99-14.61,5.97s-5.91,8.91-5.91,14.78
		s1.97,10.8,5.91,14.78S689.74,329.71,695.54,329.71z"/>
	<path d="M751.66,289.71c3.32-7.19,9.35-10.78,18.09-10.78v10.55c-4.95-0.23-9.2,1.08-12.75,3.94c-3.56,2.86-5.33,7.46-5.33,13.8
		v30.72h-10.09v-57.97h4.31c3.19,0,5.78,2.59,5.78,5.78v3.96H751.66z"/>
</g>
</svg>
