<?xml version="1.0" encoding="utf-8"?>
<!-- Generator: Adobe Illustrator 24.3.0, SVG Export Plug-In . SVG Version: 6.00 Build 0)  -->
<svg version="1.0" id="katman_1" xmlns="http://www.w3.org/2000/svg" xmlns:xlink="http://www.w3.org/1999/xlink" x="0px" y="0px"
	 viewBox="0 0 841.89 595.28" style="enable-background:new 0 0 841.89 595.28;" xml:space="preserve">
<polygon points="364.21,302.08 329.02,302.08 329.02,271.09 313.43,271.09 313.43,347.91 329.02,347.91 329.02,316.72 
	364.21,316.72 364.21,347.91 379.8,347.91 379.8,271.09 364.21,271.09 "/>
<path d="M452.01,315.06c0,12.49-6.2,19.16-17.46,19.16c-11.33,0-17.56-6.86-17.56-19.69v-43.39h-15.58v43.92
	c0,21.61,12.01,34,32.93,34c21.13,0,33.26-12.62,33.26-34.63V271.1h-15.59V315.06z"/>
<polygon points="632.15,323.91 614.7,271.08 601.98,271.08 584.54,323.91 567.58,271.13 550.98,271.13 577.76,347.91 590.66,347.91 
	608.13,297.47 625.59,347.91 638.61,347.91 665.31,271.13 649.15,271.13 "/>
<polygon points="693.25,314.85 721.61,314.85 721.61,300.86 693.25,300.86 693.25,285.14 734.4,285.14 734.4,271.14 677.88,271.14 
	677.88,347.87 735.88,347.87 735.88,333.87 693.25,333.87 "/>
<rect x="754.47" y="271.09" width="15.37" height="76.72"/>
<path d="M509.33,271.09l-33.83,76.78h15.9l7-16h35.15l6.9,16h16.33l-33.72-76.78H509.33z M504.2,318.03l11.75-27.5l11.82,27.5H504.2
	z"/>
<path d="M260.79,281.25c1.12-17.41-16.4-33.52-16.4-33.52s-32.48,39.36-56.17,91.03c-0.12,0.27-0.17,0.73,0.11,0.96
	c0.19,0.16,0.55,0.27,0.91,0.09c8.88-4.4,45.78-23.41,61.32-38.23C250.55,301.59,260.27,293.78,260.79,281.25 M219.37,241.98
	c0,0-4.06-15.17-20.55-19.18c0,0-4.74-1.2-9.78-1.91c0,0-18.42,23.72-9.47,113.2c0.04,0.47,0.29,0.64,0.51,0.7
	c0.34,0.09,0.66-0.03,0.89-0.34c5.9-8.54,32.84-48.47,38.3-72.75C219.26,261.69,222.23,249.94,219.37,241.98 M194.11,352.47
	c-0.1,0.2-0.18,0.67,0.2,0.95c5.94,4.26,23.98,16.88,32.67,19.33c0,0,16.07,5.48,30.03-18.5c0,0-46.7-1.63-62.24-2.17
	C194.55,352.07,194.24,352.22,194.11,352.47 M273.56,299.27c0,0-52.85,28.37-80.16,46.79c-0.2,0.13-0.46,0.4-0.32,0.89
	c0.07,0.26,0.32,0.49,0.65,0.49c9.77,0.01,46.81,0.06,47.74-0.11c0,0,4.78-0.2,10.7-2.47c0,0,13.17-4.19,20.01-19.14
	C272.18,325.72,278.28,313.52,273.56,299.27 M155.04,346.06c-27.32-18.41-80.16-46.79-80.16-46.79
	c-4.72,14.25,1.38,26.45,1.38,26.45c6.84,14.96,20.01,19.14,20.01,19.14c5.91,2.27,10.7,2.47,10.7,2.47
	c0.93,0.17,37.96,0.13,47.74,0.11c0.33,0,0.58-0.23,0.65-0.49C155.49,346.46,155.23,346.19,155.04,346.06 M153.66,352.07
	c-15.53,0.54-62.24,2.17-62.24,2.17c13.96,23.98,30.03,18.5,30.03,18.5c8.69-2.44,26.72-15.06,32.67-19.33
	c0.38-0.27,0.29-0.75,0.19-0.95C154.19,352.22,153.87,352.07,153.66,352.07 M149.6,222.8c-16.47,4.01-20.53,19.18-20.53,19.18
	c-2.87,7.96,0.1,19.71,0.1,19.71c5.47,24.28,32.41,64.21,38.3,72.75c0.23,0.32,0.55,0.44,0.89,0.34c0.22-0.06,0.47-0.22,0.51-0.7
	c8.95-89.48-9.47-113.2-9.47-113.2C154.35,221.6,149.6,222.8,149.6,222.8 M104.05,247.73c0,0-17.52,16.11-16.4,33.52
	c0.51,12.53,10.24,20.34,10.24,20.34c15.54,14.82,52.44,33.83,61.32,38.23c0.35,0.18,0.71,0.07,0.91-0.09
	c0.28-0.23,0.23-0.69,0.11-0.96C136.53,287.09,104.05,247.73,104.05,247.73"/>
</svg>
