<?xml version="1.0" encoding="utf-8"?>
<!-- Generator: Adobe Illustrator 27.5.0, SVG Export Plug-In . SVG Version: 6.00 Build 0)  -->
<svg version="1.1" id="Ebene_2" xmlns="http://www.w3.org/2000/svg" xmlns:xlink="http://www.w3.org/1999/xlink" x="0px" y="0px"
	 viewBox="0 0 524.39 364.74" style="enable-background:new 0 0 524.39 364.74;" xml:space="preserve">
<style type="text/css">
	.st0{fill:#BCA06F;}
</style>
<g id="Logo">
	<g>
		<g>
			<path class="st0" d="M75.5,141.7v1.8c-7.3,0-10.3,8.4-10.3,12.2v39.9c0,3.9,1.2,10.7,8.5,10.7h6.2c11.3,0,17.9-9.1,19.9-16.9h2.2
				l-2.2,18l-1.5,1.3H42.8v-1.9c6.3,0,8.5-6.8,8.5-10.7v-40.4c0-3.8-2-12.2-9.3-12.2v-1.8C42,141.7,75.5,141.7,75.5,141.7z"/>
			<path class="st0" d="M130.4,159.8c13.3,0,21.2,9.6,20.8,22.6h-33.6c0.4,6.4,2.8,12.4,8.1,16.5c2.9,2.3,7,3.4,11.1,3.4
				c5.1,0,10.2-1.6,13.6-4.8l1,0.7c-4.3,7.1-12.5,11.5-22.9,11.5c-14.8,0-24.3-10.1-24.3-24.6C104.2,169,114.5,159.8,130.4,159.8z
				 M138.9,179.1c0-9.2-4.4-17.7-11.6-16.8c-7.9,1-9.8,11.2-9.8,17.7v0.3L138.9,179.1z"/>
			<path class="st0" d="M150.9,167.5v-1.3l16.7-6.3h1.2l18.1,39.9c2.1-3.4,4.8-10.3,6-16.1c1.3-5.8,1.9-11.6,1.8-17.5
				c0-3.4-0.6-7.5-1.6-11.6c-4.5,0.8-9.4,1.3-14.6,1.4c-7.5,0.1-18.6-2.6-18.6-11.8c0-8.5,8.8-12.3,16.7-12.2
				c11.9,0.1,20.5,6.1,24.2,17.2c3-1.1,6-2.3,8.9-3.9c7.3-3.8,16.5-9.3,24.5-9.6c18.5-0.7,14.6,19,6.3,14.3
				c-9.9-5.6-20.2-2.2-28.6,0c-3.2,0.8-6.6,1.8-10.1,2.7c2.4,11.4-1.4,24.4-5.7,34.2c-1.9,4.2-3.9,8.2-6.2,12.2
				c-3.3,5.8-6.7,11.4-10.1,17c-4,6.6-8.1,16.5-17.3,16.5c-3.7-0.1-6.8-2.4-6.7-7.4c0-3,2.2-5.8,5.3-5.8c2.9,0.1,3.5,2.1,6.1,3.1
				c6.2,2.3,12.5-6.7,9.1-13.8l-15.7-32.9C158,170.2,156.2,167.7,150.9,167.5L150.9,167.5z M182.5,152.3c3.4-0.1,6.6-0.4,9.6-0.9
				c-2.8-8.5-7.7-16.1-14.7-16.1C167.3,135.5,168.6,152.6,182.5,152.3L182.5,152.3z"/>
			<path class="st0" d="M226.5,159.9c6.6,0,12,1.5,15.5,4.3l0.7,12.1h-1.9c-2.4-7.8-7.7-14.1-16.1-14.1c-5.6,0-8.6,3.3-8.6,7
				c0,2.9,1.8,5.9,5.6,7.4c3.6,1.4,7,2.4,10.5,3.5c7.3,2.4,12.9,7,12.6,15.5c-0.5,11.1-10.8,14.3-20.2,14.2
				c-6.1,0-12.3-1.5-17.4-3.8l-0.8-14.7h1.9c2.9,8.5,7,15.5,15.3,16.2c4.6,0.4,9.8-1.1,9.7-6.8c0-2.4-1.2-4.8-3.3-6.3
				c-2-1.5-4.7-2.6-7.9-3.7c-7.7-2.8-16.6-6.4-16.2-16.7C206.4,163,217,159.9,226.5,159.9L226.5,159.9z"/>
			<path class="st0" d="M247.2,208.71v-1.9c2,0,7.5-2.1,7.5-10.7v-19c0-6.2-1.2-9.4-6.6-9.6v-1.3l18.8-6.3h1.3v36.2
				c0,8.3,5.8,10.7,7.4,10.7v1.9H247.2z M268.4,147.71c0,4.4-3.6,8.1-8.1,8.1s-8-3.7-8-8.1c0-4.4,3.5-8.2,8-8.2
				S268.4,143.21,268.4,147.71z"/>
			<path class="st0" d="M302.3,159.8c13.3,0,21.2,9.6,20.8,22.6h-33.6c0.4,6.4,2.8,12.4,8.1,16.5c2.9,2.3,7,3.4,11.1,3.4
				c5.1,0,10.2-1.6,13.6-4.8l1,0.7c-4.3,7.1-12.5,11.5-22.9,11.5c-14.8,0-24.3-10.1-24.3-24.6C276.1,169,286.4,159.8,302.3,159.8z
				 M310.8,179.1c0-9.2-4.4-17.7-11.6-16.8c-7.9,1-9.8,11.2-9.8,17.7v0.3L310.8,179.1z"/>
			<path class="st0" d="M331.39,196.11l-0.1-31.4h-6.3v-2.5h6.3v-5.9c0-12.8,9-17.6,19.9-17.6c6.9,0,13.6,3.2,13.6,9.6
				c0,8.9-11.7,7.5-11.7,2.9v-3.7c0-5.5-1.9-6.5-3.8-6.5c-2.2,0.1-4.4,2.1-4.4,6.4v14.8h19.5v-5.9c0-12.8,9-17.6,19.9-17.6
				c6.9,0,13.6,3.2,13.6,9.6c0,8.9-11.7,7.5-11.7,2.9v-3.7c0-5.5-1.9-6.5-3.8-6.5c-2.2,0.1-4.4,2.1-4.4,6.4v14.8h10.9v2.5h-10.9
				v31.4c0,8.3,5.8,10.7,7.4,10.7v1.9h-28.4v-1.9c2,0,7.5-2.1,7.5-10.7l-0.1-31.4h-19.5v31.4c0,8.3,5.8,10.7,7.4,10.7v1.9h-28.4
				v-1.9C325.89,206.81,331.39,204.71,331.39,196.11z"/>
			<path class="st0" d="M414.19,159.8c13.3,0,21.2,9.6,20.8,22.6h-33.6c0.4,6.4,2.8,12.4,8.1,16.5c2.9,2.3,7,3.4,11.1,3.4
				c5.1,0,10.2-1.6,13.6-4.8l1,0.7c-4.3,7.1-12.5,11.5-22.9,11.5c-14.8,0-24.3-10.1-24.3-24.6C387.99,169,398.29,159.8,414.19,159.8
				L414.19,159.8z M422.69,179.1c0-9.2-4.4-17.7-11.6-16.8c-7.9,1-9.8,11.2-9.8,17.7v0.3L422.69,179.1z"/>
			<path class="st0" d="M436.49,206.81c2,0,7.5-2.1,7.5-10.7v-19c0-6.2-1.2-9.4-6.6-9.6v-1.3l18.8-6.3h1.3v12.7
				c3.7-7.9,9.5-12.7,17-12.7c9.9,0,9.9,14.1,3.3,14.1c-4.7,0.1-6.2-4.2-11.2-4.2c-3.8,0-6.7,2.9-9.1,6.8v19.8
				c0,8.3,5.8,10.4,7.4,10.4v1.9h-28.4L436.49,206.81L436.49,206.81z"/>
		</g>
		<g>
			<path class="st0" d="M206.56,226.08c0-3.67,2.9-6.68,6.62-6.68c2.04,0,3.82,0.86,4.94,2.21l-2.17,1.81
				c-0.69-0.8-1.67-1.29-2.77-1.29c-2.08,0-3.67,1.8-3.67,3.95s1.55,4.04,3.76,4.04c1.44,0,3.03-0.8,3.03-2.08h-3.63v-2.38h6.83
				c0,4.88-2.71,7.07-6.15,7.07c-3.97,0-6.79-3.03-6.79-6.66V226.08z"/>
			<path class="st0" d="M225.96,229.95h5.5v2.56h-8.44v-12.89h8.27v2.56h-5.33v2.66h4.68v2.64h-4.68V229.95z"/>
			<path class="st0" d="M242.27,219.62h2.94v12.89h-2.58l-4.23-7.41v7.41h-2.94v-12.89h2.69l4.12,7.31
				C242.27,226.93,242.27,219.62,242.27,219.62z"/>
			<path class="st0" d="M249.58,227.91v-8.29h2.94v8.06c0,1.63,1.03,2.26,2.1,2.26s2.08-0.64,2.08-2.26v-8.06h2.94v8.29
				c0,2.97-2.36,4.83-5.01,4.83c-2.65,0-5.03-1.85-5.03-4.83H249.58z"/>
			<path class="st0" d="M263.33,228.75h2.94c0,0.82,0.82,1.46,1.83,1.46c0.95,0,1.68-0.49,1.68-1.33c0-0.5-0.28-0.97-1.42-1.35
				l-1.53-0.47c-2.84-0.77-3.39-2.51-3.39-3.72c0-2.32,1.98-3.95,4.55-3.95s4.36,1.48,4.36,3.98h-2.94c0-0.77-0.47-1.42-1.48-1.42
				c-0.92,0-1.52,0.62-1.52,1.33c0,0.26,0.07,0.84,1.27,1.18l1.35,0.43c1.83,0.56,3.7,1.5,3.7,3.83c0,2.77-2.39,4-4.75,4
				c-2.75,0-4.66-1.61-4.66-3.98L263.33,228.75z"/>
			<path class="st0" d="M275.88,228.75h2.94c0,0.82,0.82,1.46,1.83,1.46c0.95,0,1.68-0.49,1.68-1.33c0-0.5-0.28-0.97-1.42-1.35
				l-1.53-0.47c-2.84-0.77-3.39-2.51-3.39-3.72c0-2.32,1.98-3.95,4.55-3.95s4.36,1.48,4.36,3.98h-2.94c0-0.77-0.47-1.42-1.48-1.42
				c-0.92,0-1.52,0.62-1.52,1.33c0,0.26,0.07,0.84,1.27,1.18l1.35,0.43c1.83,0.56,3.7,1.5,3.7,3.83c0,2.77-2.39,4-4.75,4
				c-2.75,0-4.66-1.61-4.66-3.98L275.88,228.75z"/>
			<path class="st0" d="M299.59,232.51h-3.76l-3.8-5.05v5.05h-2.94v-12.89h2.94v5.2l3.35-5.2h3.5L294.6,226l5,6.51H299.59z"/>
			<path class="st0" d="M302.04,227.91v-8.29h2.94v8.06c0,1.63,1.03,2.26,2.09,2.26s2.08-0.64,2.08-2.26v-8.06h2.94v8.29
				c0,2.97-2.36,4.83-5.01,4.83S302.05,230.89,302.04,227.91L302.04,227.91z"/>
			<path class="st0" d="M319.4,229.95h4.73v2.56h-7.67v-12.89h2.94V229.95z"/>
			<path class="st0" d="M334.73,219.62v2.56h-3.41v10.33h-2.94v-10.33h-3.41v-2.56h9.75H334.73z"/>
			<path class="st0" d="M337.79,227.91v-8.29h2.94v8.06c0,1.63,1.03,2.26,2.09,2.26s2.08-0.64,2.08-2.26v-8.06h2.94v8.29
				c0,2.97-2.36,4.83-5.01,4.83S337.8,230.89,337.79,227.91L337.79,227.91z"/>
			<path class="st0" d="M358.71,232.51l-2.96-4.53h-0.6v4.53h-2.94v-12.89h5.28c2.99,0,4.34,2.13,4.34,4.27
				c0,1.81-1.35,3.55-3.01,3.93l3.31,4.7L358.71,232.51L358.71,232.51z M355.16,222.18v3.48h1.87c1.29,0,1.85-0.84,1.85-1.7
				s-0.58-1.78-1.78-1.78h-1.95H355.16z"/>
			<path class="st0" d="M370.97,228.75h2.94c0,0.82,0.82,1.46,1.83,1.46c0.95,0,1.68-0.49,1.68-1.33c0-0.5-0.28-0.97-1.42-1.35
				l-1.53-0.47c-2.84-0.77-3.39-2.51-3.39-3.72c0-2.32,1.98-3.95,4.55-3.95s4.36,1.48,4.36,3.98h-2.94c0-0.77-0.47-1.42-1.48-1.42
				c-0.92,0-1.52,0.62-1.52,1.33c0,0.26,0.08,0.84,1.27,1.18l1.35,0.43c1.83,0.56,3.7,1.5,3.7,3.83c0,2.77-2.39,4-4.75,4
				c-2.75,0-4.66-1.61-4.66-3.98L370.97,228.75z"/>
			<path class="st0" d="M387.12,229.95h5.5v2.56h-8.44v-12.89h8.27v2.56h-5.33v2.66h4.68v2.64h-4.68V229.95z"/>
			<path class="st0" d="M396.64,232.51v-12.89h2.94v12.89H396.64z"/>
			<path class="st0" d="M412.45,219.62v2.56h-3.41v10.33h-2.94v-10.33h-3.41v-2.56h9.75H412.45z"/>
			<path class="st0" d="M426.15,220.07h0.24v12.44h-2.75v-8.77l-2.94,1.1v-2.54l5.44-2.23H426.15z"/>
			<path class="st0" d="M439.66,225.91c0,3.91-1.96,6.83-5.24,6.83c-1.68,0-3.29-0.9-4-2.41l2.15-1.29c0.34,0.71,1.05,1.14,1.8,1.14
				c1.44,0,2.39-1.2,2.54-2.96c-0.6,0.52-1.42,0.9-2.56,0.9c-2.47,0-4.1-1.76-4.1-3.89c0-2.45,1.83-4.15,4.6-4.15
				S439.66,222.42,439.66,225.91L439.66,225.91z M436.65,224.24c0-0.95-0.75-1.61-1.83-1.61s-1.8,0.65-1.8,1.61
				c0,0.96,0.71,1.59,1.78,1.61C435.88,225.85,436.63,225.2,436.65,224.24L436.65,224.24z"/>
			<path class="st0" d="M443.03,226.4c0-3.54,1.03-6.32,4.62-6.32s4.56,2.79,4.56,6.32s-1.01,6.34-4.56,6.34
				S443.03,229.92,443.03,226.4z M449.39,226.4c0-2.13-0.43-3.78-1.74-3.78s-1.81,1.65-1.81,3.78c0,2.13,0.47,3.78,1.81,3.78
				S449.39,228.51,449.39,226.4z"/>
			<path class="st0" d="M464.92,225.91c0,3.91-1.96,6.83-5.24,6.83c-1.68,0-3.29-0.9-4-2.41l2.15-1.29c0.34,0.71,1.05,1.14,1.8,1.14
				c1.44,0,2.39-1.2,2.54-2.96c-0.6,0.52-1.42,0.9-2.56,0.9c-2.47,0-4.1-1.76-4.1-3.89c0-2.45,1.83-4.15,4.6-4.15
				S464.92,222.42,464.92,225.91L464.92,225.91z M461.91,224.24c0-0.95-0.75-1.61-1.83-1.61s-1.8,0.65-1.8,1.61
				c0,0.96,0.71,1.59,1.78,1.61C461.14,225.85,461.89,225.2,461.91,224.24L461.91,224.24z"/>
		</g>
	</g>
</g>
</svg>
