<?xml version="1.0" encoding="utf-8"?>
<!-- Generator: Adobe Illustrator 24.3.0, SVG Export Plug-In . SVG Version: 6.00 Build 0)  -->
<svg version="1.0" id="katman_1" xmlns="http://www.w3.org/2000/svg" xmlns:xlink="http://www.w3.org/1999/xlink" x="0px" y="0px"
	 viewBox="0 0 369 245" style="enable-background:new 0 0 369 245;" xml:space="preserve">
<style type="text/css">
	.st0{clip-path:url(#SVGID_2_);}
	.st1{fill-rule:evenodd;clip-rule:evenodd;fill:#FFCC40;}
	.st2{clip-path:url(#SVGID_4_);}
	.st3{fill:#221747;}
</style>
<g>
	<defs>
		<rect id="SVGID_1_" x="25.13" y="72.74" width="100" height="100"/>
	</defs>
	<clipPath id="SVGID_2_">
		<use xlink:href="#SVGID_1_"  style="overflow:visible;"/>
	</clipPath>
	<g class="st0">
		<path class="st1" d="M76.34,108.86c2.25,0.18,3.98,1.65,5.53,3.01c0.25,0.26,0.5,0.53,0.75,0.81c0.25,0.28,0.5,0.58,0.74,0.89
			c4.36,5.39,10,9.27,17.09,10.42c2.14,0.35,3.5,1.39,3.36,3.63c-0.12,2-1.89,3.03-4.36,2.76c-0.53-0.06-1.04-0.19-1.56-0.3
			c-5.79-1.21-10.81-3.99-15.13-7.91c-1.74-1.58-2.61-1.3-3.93,0.31c-1.68,2.05-3.64,3.87-5.4,5.86c-1.95,2.21-1.92,2.26,0.9,2.86
			c10.23,2.17,20.25,5.1,30.14,8.51c3.33,1.15,4.7,3.76,3.64,6.85c-0.89,2.59-3.68,3.69-6.86,2.68c-0.84-0.27-1.67-0.59-2.51-0.86
			c-7.23-2.4-14.55-4.5-21.94-6.34c-1.92-0.48-2.59-0.33-2.51,1.96c0.14,4.19-2.4,7.38-6.53,8.63c-7.54,2.29-15.11,1.15-22.63-0.16
			c-2.53-0.44-3.73-3.13-3.21-5.92c0.43-2.31,2.49-3.94,5.05-3.78c2.12,0.14,4.22,0.5,6.33,0.75c2.73,0.33,5.48,0.42,8.22,0.23
			c0.75-0.05,1.87,0.16,2.08-0.74c0.23-0.97-0.67-1.42-1.54-1.81c-1.21-0.53-2.38-1.19-3.47-1.94c-4.01-2.77-4.9-6.49-2.79-10.9
			c2.08-4.35,4.72-8.3,7.89-11.91c3.29-0.52,5.66,1.31,8.05,3.13c1.98,1.5,4.39,1.17,5.62-0.4c0.21-0.26,0.38-0.56,0.51-0.88
			c1.57-3.85-2.86-6.55-5.81-7.79c0.74-1.11,1.97-1.48,3.24-1.63C75.65,108.88,75.99,108.87,76.34,108.86z"/>
		<path class="st1" d="M88.55,110.77c-5.15,0.02-9.03-3.87-9.02-9.05c0-5.1,3.99-9.03,9.11-8.98c4.92,0.05,8.94,4.05,8.98,8.94
			C97.67,106.71,93.63,110.75,88.55,110.77z"/>
		<path class="st1" d="M63.64,115.67c-3.56-0.1-5.53,2.34-7.48,4.76c-0.55,0.68-0.94,1.5-1.5,2.18c-1.27,1.53-2.87,1.77-4.48,0.71
			c-1.5-0.99-2-2.55-1.13-4.18c3.55-6.68,10.4-12.55,20.05-9.4c0.28,0.09,0.55,0.19,0.83,0.29c3.12,1.72,9.77,4.19,6.77,8.77
			c-0.21,0.26-0.44,0.48-0.69,0.64c-1.23,0.81-2.88,0.37-4.91-1.11C68.91,116.71,66.6,115.23,63.64,115.67z"/>
	</g>
</g>
<g>
	<defs>
		<rect id="SVGID_3_" x="125.13" y="102.74" width="218.33" height="40"/>
	</defs>
	<clipPath id="SVGID_4_">
		<use xlink:href="#SVGID_3_"  style="overflow:visible;"/>
	</clipPath>
	<g class="st2">
		<path class="st3" d="M144.83,133.74h-5.7l-7.9-18.63c0.2,1.64,0.34,3.13,0.43,4.47c0.11,1.33,0.17,2.92,0.17,4.77v9.4h-4v-23.03
			h5.57l8.03,18.67c-0.13-0.89-0.27-2.06-0.4-3.5c-0.13-1.47-0.2-2.92-0.2-4.37v-10.8h4V133.74z M154.36,116.11v17.63h-4.27v-17.63
			H154.36z M152.2,107.18c0.8,0,1.44,0.26,1.93,0.77c0.51,0.49,0.77,1.1,0.77,1.83c0,0.73-0.26,1.34-0.77,1.83
			c-0.49,0.49-1.13,0.73-1.93,0.73c-0.78,0-1.42-0.24-1.93-0.73c-0.49-0.49-0.73-1.1-0.73-1.83c0-0.73,0.24-1.34,0.73-1.83
			C150.77,107.43,151.42,107.18,152.2,107.18z M178.2,115.61c1.42,0,2.55,0.49,3.4,1.47c0.84,0.96,1.27,2.26,1.27,3.9v12.77h-4.27
			v-12.1c0-1.89-0.65-2.83-1.93-2.83c-0.69,0-1.29,0.22-1.8,0.67c-0.49,0.42-1,1.09-1.53,2v12.27h-4.27v-12.1
			c0-1.89-0.65-2.83-1.93-2.83c-0.71,0-1.32,0.22-1.83,0.67c-0.49,0.42-1,1.09-1.53,2v12.27h-4.27v-17.63h3.7l0.33,2.3
			c1.33-1.87,3.03-2.8,5.1-2.8c1.02,0,1.9,0.27,2.63,0.8c0.75,0.51,1.3,1.23,1.63,2.17c0.71-0.96,1.49-1.69,2.33-2.2
			C176.1,115.87,177.09,115.61,178.2,115.61z M196.96,115.61c2.04,0,3.64,0.82,4.8,2.47c1.15,1.62,1.73,3.9,1.73,6.83
			c0,1.82-0.29,3.44-0.87,4.87c-0.56,1.4-1.35,2.5-2.4,3.3c-1.04,0.78-2.28,1.17-3.7,1.17c-0.96,0-1.83-0.2-2.63-0.6
			c-0.78-0.4-1.46-0.97-2.03-1.7l-0.27,1.8h-3.77v-24.7l4.27-0.47v9.53c0.58-0.8,1.28-1.41,2.1-1.83
			C195.03,115.83,195.96,115.61,196.96,115.61z M195.36,131.04c1.15,0,2.06-0.49,2.7-1.47c0.64-1,0.97-2.56,0.97-4.67
			c0-2.22-0.3-3.79-0.9-4.7c-0.6-0.93-1.44-1.4-2.53-1.4c-1.36,0-2.52,0.8-3.5,2.4v7.8c0.38,0.64,0.84,1.14,1.4,1.5
			C194.07,130.87,194.69,131.04,195.36,131.04z M211.85,134.24c-1.36,0-2.42-0.39-3.2-1.17c-0.76-0.8-1.13-1.92-1.13-3.37v-20.67
			l4.27-0.47v21c0,0.82,0.33,1.23,1,1.23c0.33,0,0.67-0.06,1-0.17l0.9,3C213.79,134.04,212.85,134.24,211.85,134.24z M231.82,124.51
			c0,0.22-0.03,0.8-0.1,1.73h-11.07c0.13,1.71,0.58,2.93,1.33,3.67c0.76,0.73,1.76,1.1,3,1.1c0.78,0,1.51-0.12,2.2-0.37
			c0.69-0.27,1.42-0.67,2.2-1.2l1.77,2.43c-1.96,1.58-4.13,2.37-6.53,2.37c-2.69,0-4.77-0.82-6.23-2.47
			c-1.44-1.64-2.17-3.89-2.17-6.73c0-1.8,0.31-3.41,0.93-4.83c0.62-1.44,1.52-2.57,2.7-3.37c1.18-0.82,2.58-1.23,4.2-1.23
			c2.47,0,4.38,0.79,5.73,2.37C231.14,119.53,231.82,121.71,231.82,124.51z M227.58,123.28c0-3.09-1.14-4.63-3.43-4.63
			c-1.04,0-1.87,0.39-2.47,1.17c-0.58,0.76-0.92,1.98-1.03,3.67h6.93V123.28z M242.74,115.61c1.16,0,2.19,0.17,3.1,0.5
			c0.93,0.33,1.81,0.86,2.63,1.57l-1.9,2.57c-0.6-0.44-1.18-0.77-1.73-0.97c-0.55-0.2-1.17-0.3-1.83-0.3
			c-2.65,0-3.97,2.01-3.97,6.03c0,2.04,0.34,3.52,1.03,4.43c0.69,0.89,1.67,1.33,2.93,1.33c0.62,0,1.19-0.1,1.7-0.3
			c0.53-0.2,1.15-0.52,1.87-0.97l1.9,2.7c-1.67,1.36-3.57,2.03-5.7,2.03c-1.69,0-3.16-0.37-4.4-1.1c-1.25-0.76-2.2-1.82-2.87-3.2
			c-0.67-1.38-1-3-1-4.87c0-1.87,0.33-3.51,1-4.93c0.67-1.44,1.62-2.56,2.87-3.33C239.62,116.01,241.08,115.61,242.74,115.61z
			 M260.96,115.61c1.56,0,2.78,0.48,3.67,1.43c0.89,0.96,1.33,2.27,1.33,3.93v12.77h-4.27v-12.1c0-1.04-0.19-1.78-0.57-2.2
			c-0.36-0.42-0.89-0.63-1.6-0.63c-0.71,0-1.37,0.23-1.97,0.7c-0.6,0.44-1.18,1.09-1.73,1.93v12.3h-4.27v-24.67l4.27-0.43v9.57
			C257.25,116.48,258.96,115.61,260.96,115.61z M283.96,129.08c0,0.69,0.1,1.2,0.3,1.53c0.22,0.31,0.57,0.56,1.03,0.73l-0.9,2.83
			c-1-0.09-1.82-0.33-2.47-0.73c-0.62-0.4-1.1-1.01-1.43-1.83c-0.6,0.89-1.35,1.56-2.27,2c-0.89,0.42-1.89,0.63-3,0.63
			c-1.76,0-3.14-0.5-4.17-1.5s-1.53-2.31-1.53-3.93c0-1.91,0.69-3.37,2.07-4.37c1.4-1.02,3.39-1.53,5.97-1.53h2.2v-1
			c0-1.13-0.27-1.92-0.8-2.37c-0.51-0.47-1.34-0.7-2.5-0.7c-1.29,0-2.84,0.31-4.67,0.93l-1-2.9c2.2-0.84,4.33-1.27,6.4-1.27
			c4.51,0,6.77,2.02,6.77,6.07V129.08z M276.36,131.14c1.44,0,2.58-0.72,3.4-2.17v-3.57h-1.77c-2.76,0-4.13,1.02-4.13,3.07
			c0,0.84,0.21,1.5,0.63,1.97C274.92,130.91,275.54,131.14,276.36,131.14z M298.26,115.61c2.22,0,3.87,0.81,4.93,2.43
			c1.07,1.62,1.6,3.9,1.6,6.83c0,1.82-0.28,3.44-0.83,4.87c-0.53,1.4-1.33,2.5-2.4,3.3c-1.04,0.8-2.29,1.2-3.73,1.2
			c-1.87,0-3.34-0.64-4.43-1.93v8.23l-4.27,0.47v-24.9h3.73l0.23,2.17c0.69-0.89,1.48-1.56,2.37-2
			C296.35,115.83,297.28,115.61,298.26,115.61z M296.62,130.98c2.47,0,3.7-2.02,3.7-6.07c0-2.16-0.28-3.71-0.83-4.67
			c-0.56-0.96-1.39-1.43-2.5-1.43c-0.71,0-1.38,0.22-2,0.67c-0.62,0.42-1.16,1-1.6,1.73v7.93
			C294.21,130.37,295.29,130.98,296.62,130.98z M318.11,115.61c2.22,0,3.87,0.81,4.93,2.43c1.07,1.62,1.6,3.9,1.6,6.83
			c0,1.82-0.28,3.44-0.83,4.87c-0.53,1.4-1.33,2.5-2.4,3.3c-1.04,0.8-2.29,1.2-3.73,1.2c-1.87,0-3.34-0.64-4.43-1.93v8.23
			l-4.27,0.47v-24.9h3.73l0.23,2.17c0.69-0.89,1.48-1.56,2.37-2C316.2,115.83,317.14,115.61,318.11,115.61z M316.48,130.98
			c2.47,0,3.7-2.02,3.7-6.07c0-2.16-0.28-3.71-0.83-4.67c-0.56-0.96-1.39-1.43-2.5-1.43c-0.71,0-1.38,0.22-2,0.67
			c-0.62,0.42-1.16,1-1.6,1.73v7.93C314.07,130.37,315.15,130.98,316.48,130.98z M334.41,115.61c2.38,0,4.47,0.7,6.27,2.1l-1.67,2.5
			c-1.51-0.96-2.99-1.43-4.43-1.43c-0.84,0-1.5,0.17-1.97,0.5c-0.47,0.31-0.7,0.73-0.7,1.27c0,0.4,0.1,0.73,0.3,1
			c0.2,0.27,0.55,0.52,1.07,0.77c0.53,0.22,1.31,0.48,2.33,0.77c1.91,0.51,3.32,1.19,4.23,2.03c0.93,0.84,1.4,2.02,1.4,3.53
			c0,1.76-0.71,3.13-2.13,4.13c-1.42,0.98-3.19,1.47-5.3,1.47c-1.45,0-2.77-0.22-3.97-0.67c-1.18-0.44-2.2-1.06-3.07-1.83l2.13-2.4
			c1.53,1.16,3.13,1.73,4.8,1.73c0.96,0,1.71-0.19,2.27-0.57c0.58-0.38,0.87-0.9,0.87-1.57c0-0.51-0.11-0.91-0.33-1.2
			c-0.2-0.31-0.58-0.58-1.13-0.8c-0.53-0.24-1.38-0.53-2.53-0.87c-1.8-0.49-3.12-1.17-3.97-2.03c-0.84-0.89-1.27-1.99-1.27-3.3
			c0-0.98,0.28-1.86,0.83-2.63c0.58-0.78,1.38-1.39,2.4-1.83C331.88,115.83,333.07,115.61,334.41,115.61z"/>
	</g>
</g>
</svg>
