<?xml version="1.0" encoding="utf-8"?>
<!-- Generator: Adobe Illustrator 27.5.0, SVG Export Plug-In . SVG Version: 6.00 Build 0)  -->
<svg version="1.1" id="katman_1" xmlns="http://www.w3.org/2000/svg" xmlns:xlink="http://www.w3.org/1999/xlink" x="0px" y="0px"
	 viewBox="0 0 841.89 595.28" style="enable-background:new 0 0 841.89 595.28;" xml:space="preserve">
<style type="text/css">
	.st0{fill-rule:evenodd;clip-rule:evenodd;}
</style>
<g>
	<g>
		<path class="st0" d="M151.62,208.52c-44.86,1.51-79.63,40.11-79.63,85.52l0.37,88.92c0,2.27,1.87,3.78,3.74,3.78h3.74
			c17.57,0,33.27-4.54,43.74-17.78c11.96,4.92,25.05,6.81,39.26,5.68c41.13-4.16,72.9-39.35,74.03-81.35
			C237.61,245.6,198.73,207.01,151.62,208.52z M83.58,375.01v-15.14c14.58-1.89,26.17-14.76,26.17-30.27v-7.57v-30.27
			c-0.37-24.97,19.82-45.41,44.49-45.41c24.67,0,44.86,20.05,44.86,45.03c0,24.97-19.81,45.41-44.49,45.79
			c-6.73,0-13.08-1.51-18.69-4.16v-17.78c5.23,4.16,11.59,6.43,18.69,6.43c16.45,0,29.91-13.62,29.91-30.27
			c0-16.65-13.46-30.27-29.91-30.27c-16.45,0-29.91,13.62-29.91,30.27v33.68v7.95C124.71,357.23,106.76,373.12,83.58,375.01z
			 M135.55,291.77c0-10.59,8.23-18.92,18.69-18.92c10.47,0,18.69,8.32,18.69,18.92c0,10.6-8.23,18.92-18.69,18.92
			C144.15,310.69,135.92,302.36,135.55,291.77z M154.62,363.66c-8.6,0-17.2-1.51-24.67-4.54c2.24-4.54,4.11-9.08,4.86-14.38
			c6.36,2.27,12.71,3.78,19.81,3.41c31.03,0,56.08-25.73,55.71-57.14c0-31.03-25.05-56-56.08-56c-31.03,0-56.08,25.73-55.71,57.14
			v37.84c0,9.08-6.36,16.65-14.95,18.54l-0.37-52.6c0,0,0-2.65,0-3.78c0-39.73,31.78-72.27,71.03-72.27
			c39.26,0,71.03,31.79,71.41,71.52C225.65,331.12,193.87,363.66,154.62,363.66z"/>
		<path class="st0" d="M274.25,270.58c0-1.89,1.5-3.41,3.36-3.41h8.6c1.87,0,3.37,1.51,3.37,3.41v6.43h0.37
			c2.24-4.16,5.61-6.81,9.72-8.7c4.11-1.89,8.23-2.65,13.09-2.65s9.35,0.76,13.46,2.65c4.11,1.89,7.48,4.16,10.09,7.19
			c2.99,3.03,4.86,6.81,6.36,10.97c1.5,4.16,2.24,8.7,2.24,13.62c0,4.92-0.75,9.46-2.24,13.62c-1.5,4.16-3.74,7.95-6.36,10.97
			c-2.62,3.03-5.98,5.68-10.09,7.19c-3.74,1.89-8.22,2.65-12.71,2.65c-2.99,0-5.98-0.38-8.23-1.14c-2.24-0.76-4.49-1.51-6.36-2.65
			c-1.87-1.14-3.36-2.27-4.49-3.41c-1.12-1.14-2.24-2.27-2.99-3.41h-0.37v36.33c0,1.89-1.5,3.41-3.37,3.41h-10.09
			c-1.87,0-3.36-1.51-3.36-3.41V270.58z M328.46,300.09c0-2.65-0.37-4.92-1.12-7.57c-0.75-2.27-2.24-4.54-3.74-6.43
			c-1.5-1.89-3.74-3.41-5.98-4.54c-2.62-0.76-5.23-1.14-8.23-1.14c-2.99,0-5.61,0.38-8.22,1.51c-2.24,1.14-4.49,2.65-5.98,4.54
			c-1.5,1.89-2.99,3.78-3.74,6.43c-0.75,2.27-1.12,4.92-1.12,7.57s0.37,4.92,1.12,7.57c0.75,2.27,2.24,4.54,3.74,6.43
			c1.5,1.89,3.74,3.41,5.98,4.54c2.24,1.14,4.86,1.51,8.22,1.51c2.99,0,5.61-0.38,8.23-1.51c2.24-1.14,4.49-2.65,5.98-4.54
			c1.5-1.89,2.99-3.78,3.74-6.43C328.09,305.01,328.46,302.74,328.46,300.09z M392.02,324.69c0-0.38,0-0.38-0.37-0.38
			c-2.24,3.78-5.23,6.43-8.97,8.32c-3.74,1.51-7.48,2.65-11.96,2.65c-2.99,0-5.98-0.38-8.97-1.14c-2.99-0.76-5.23-1.89-7.48-3.78
			c-2.24-1.51-4.11-3.78-5.23-6.05c-1.5-2.65-1.87-5.3-1.87-8.7c0-3.41,0.75-6.81,1.87-9.08c1.12-2.65,2.99-4.54,5.23-6.43
			c2.24-1.51,4.49-3.03,7.48-4.16c2.99-1.14,5.61-1.89,8.97-2.27c2.99-0.38,5.98-0.76,9.35-1.14c2.99,0,5.98-0.38,8.6-0.38h4.11
			v-1.89c0-4.16-1.5-7.19-4.11-9.46c-2.99-1.89-6.36-3.03-10.84-3.03c-3.36,0-6.73,0.76-9.72,1.89c-1.5,0.76-3.74,1.89-5.23,3.03
			c-1.5,1.14-3.36,0.76-4.86-0.38l-3.74-3.78c-1.5-1.51-1.5-3.78,0.37-5.3c2.62-1.89,6.73-4.92,9.72-5.68
			c4.86-1.51,9.72-2.65,14.95-2.65c4.49,0,8.6,0.38,11.59,1.51c3.36,1.14,5.98,2.27,7.85,4.16c2.24,1.51,3.74,3.41,4.86,5.68
			c1.12,2.27,1.87,4.16,2.62,6.43c0.37,2.27,0.75,4.16,0.75,6.43c0,1.89,0,3.78,0,5.3v35.19c0,1.89-1.49,3.41-3.36,3.41h-7.48
			c-1.87,0-3.36-1.51-3.36-3.41v-4.92H392.02z M391.27,303.5h-3.37c-2.24,0-4.86,0-7.48,0.38c-2.99,0-5.61,0.76-7.85,1.14
			c-2.62,0.76-4.49,1.51-6.36,3.03c-1.87,1.51-2.62,3.03-2.62,5.68c0,1.51,0.37,3.03,1.12,3.78c0.75,1.14,1.5,1.89,2.62,2.65
			c1.12,0.76,2.24,1.14,3.74,1.51c1.5,0.38,2.62,0.38,4.11,0.38c5.61,0,9.72-1.51,12.34-4.16c2.62-2.65,4.11-6.43,4.11-10.97v-3.41
			H391.27z M411.83,281.17c-1.87,0-3.37-1.51-3.37-3.41v-6.81c0-1.89,1.5-3.41,3.37-3.41h10.09v-15.51c0-1.89,1.5-3.41,3.36-3.41
			h9.35c1.87,0,3.37,1.51,3.37,3.41v15.51h14.58c1.87,0,3.37,1.51,3.37,3.41v6.81c0,1.89-1.5,3.41-3.37,3.41H438v29.14
			c0,3.41,0.75,6.05,1.87,7.95c1.12,1.89,3.74,3.03,7.1,3.03c1.5,0,2.99,0,4.86-0.38c1.87-0.38,4.11,0.76,4.11,3.03v6.81
			c0,1.51-0.75,3.03-2.24,3.41c-1.12,0.38-2.62,0.76-4.11,0.76c-2.62,0.38-4.86,0.38-6.73,0.38c-4.49,0-7.85-0.38-10.84-1.51
			c-2.62-1.14-4.86-2.27-6.36-4.54c-1.5-1.89-2.62-4.54-3.36-7.19c-0.75-3.03-0.75-6.43-0.75-10.22v-30.27h-9.72V281.17z
			 M476.51,275.87C476.51,276.25,476.51,276.25,476.51,275.87c1.5-2.65,3.74-4.92,7.1-7.19c3.37-2.27,7.48-3.41,12.34-3.41
			c4.49,0,8.23,0.76,11.22,2.27c2.99,1.51,5.61,3.41,7.48,5.68c1.87,2.27,3.36,5.3,4.11,8.32c0.75,3.03,1.12,6.43,1.12,9.84v38.22
			c0,1.89-1.5,3.41-3.36,3.41h-9.35c-1.87,0-3.37-1.51-3.37-3.41v-29.89c0-1.89,0-3.78-0.37-6.05c0-2.27-0.75-4.54-1.5-6.43
			c-0.75-1.89-1.87-3.78-3.74-4.92c-1.5-1.51-3.74-1.89-6.73-1.89c-2.62,0-4.86,0.38-6.73,1.51c-1.87,0.76-3.36,2.27-4.49,3.78
			c-1.12,1.51-2.24,3.41-2.62,5.3c-0.37,1.89-0.75,4.16-0.75,6.43v32.16c0,1.89-1.5,3.41-3.36,3.41h-9.35
			c-1.87,0-3.36-1.51-3.36-3.41v-96.87c0-1.89,1.5-3.41,3.36-3.41h9.35c1.87,0,3.36,1.51,3.36,3.41v43.14H476.51z M529.98,232.74
			c0-1.89,1.5-3.41,3.36-3.41h9.35c1.87,0,3.36,1.51,3.36,3.41v96.87c0,1.89-1.5,3.41-3.36,3.41h-9.35c-1.87,0-3.36-1.51-3.36-3.41
			V232.74z M556.89,270.58c0-1.89,1.5-3.41,3.36-3.41h9.35c1.87,0,3.36,1.51,3.36,3.41v59.03c0,1.89-1.5,3.41-3.36,3.41h-9.35
			c-1.87,0-3.36-1.51-3.36-3.41V270.58z M554.65,244.47c0-2.65,1.12-4.92,2.99-6.81c1.87-1.89,4.49-3.03,7.48-3.03
			c2.99,0,5.61,0.76,7.48,2.65c1.87,1.89,2.99,4.16,2.99,7.19c0,3.03-1.12,5.3-2.99,7.19c-1.87,1.89-4.49,2.65-7.48,2.65
			c-2.99,0-5.61-1.14-7.48-3.03C555.4,249.39,554.65,247.12,554.65,244.47z M647,267.17c1.87,0,3.36,1.51,3.36,3.41v56.76
			c0,6.05-0.74,11.35-2.24,16.27c-1.49,4.92-3.74,9.08-6.73,12.11c-2.99,3.41-6.73,6.05-11.59,7.95
			c-4.49,1.89-10.09,2.65-16.45,2.65c-5.98,0-11.96-0.76-17.2-2.27c-3.37-1.14-8.97-4.16-12.34-6.43c-1.5-1.14-1.87-3.41-0.75-4.92
			l5.61-7.57c1.12-1.51,3.36-1.89,5.23-0.76c2.24,1.51,5.23,3.78,7.48,4.92c3.36,1.51,7.48,2.65,12.34,2.65
			c3.74,0,7.1-0.38,9.72-1.51c2.62-1.14,4.86-2.65,6.36-4.54c1.5-1.89,2.62-4.16,3.37-6.81c0.75-2.65,1.12-5.68,1.12-9.08v-4.92
			h-0.37c-2.24,3.41-5.61,5.68-9.35,7.19c-3.74,1.51-7.85,2.27-11.96,2.27c-4.86,0-9.35-0.76-13.46-2.65
			c-4.11-1.89-7.48-4.16-10.47-7.19c-2.99-3.03-5.23-6.43-6.73-10.6c-1.5-4.16-2.24-8.7-2.24-13.24c0-4.92,0.75-9.46,2.24-13.62
			c1.5-4.16,3.74-7.95,6.36-10.97c2.99-3.03,6.36-5.68,10.09-7.19c4.11-1.89,8.6-2.65,13.46-2.65c4.49,0,8.97,0.76,13.08,2.65
			c4.11,1.89,7.1,4.92,9.72,8.7h0.37v-6.43c0-1.89,1.5-3.41,3.36-3.41h8.6V267.17z M615.59,280.42c-2.99,0-5.61,0.38-7.85,1.51
			c-2.24,1.14-4.49,2.27-5.98,4.16c-1.5,1.51-2.99,3.78-4.11,6.05c-1.12,2.27-1.5,5.3-1.5,7.95c0,2.65,0.37,5.3,1.5,7.57
			c1.12,2.27,2.24,4.16,4.11,6.05c1.87,1.89,3.74,3.03,5.98,4.16c2.24,1.14,4.86,1.51,7.48,1.51c2.99,0,5.61-0.38,8.23-1.51
			c2.24-1.14,4.49-2.27,5.98-4.16c1.5-1.51,2.99-3.78,3.74-6.05c0.75-2.27,1.5-4.92,1.5-7.57c0-5.68-1.87-10.59-5.23-14
			C626.43,281.93,621.57,280.42,615.59,280.42z M676.53,275.87C676.53,276.25,676.91,276.25,676.53,275.87
			c1.5-2.65,3.74-4.92,7.11-7.19c3.36-2.27,7.47-3.41,12.33-3.41c4.49,0,8.23,0.76,11.22,2.27c2.99,1.51,5.61,3.41,7.48,5.68
			c1.87,2.27,3.36,5.3,4.11,8.32c0.75,3.03,1.12,6.43,1.12,9.84v38.22c0,1.89-1.5,3.41-3.36,3.41h-9.35c-1.87,0-3.37-1.51-3.37-3.41
			v-29.89c0-1.89,0-3.78-0.37-6.05c0-2.27-0.75-4.54-1.49-6.43c-0.75-1.89-1.87-3.78-3.74-4.92c-1.5-1.51-3.74-1.89-6.73-1.89
			c-2.62,0-4.86,0.38-6.73,1.51c-1.87,0.76-3.37,2.27-4.49,3.78c-1.12,1.51-2.24,3.41-2.61,5.3c-0.38,1.89-0.75,4.16-0.75,6.43
			v32.16c0,1.89-1.5,3.41-3.37,3.41h-9.34c-1.87,0-3.37-1.51-3.37-3.41v-96.87c0-1.89,1.5-3.41,3.37-3.41h9.34
			c1.87,0,3.37,1.51,3.37,3.41v43.14H676.53z M725.88,281.17c-1.87,0-3.36-1.51-3.36-3.41v-6.81c0-1.89,1.49-3.41,3.36-3.41h10.1
			v-15.51c0-1.89,1.49-3.41,3.36-3.41h9.35c1.87,0,3.36,1.51,3.36,3.41v15.51h14.58c1.87,0,3.37,1.51,3.37,3.41v6.81
			c0,1.89-1.5,3.41-3.37,3.41h-14.58v29.14c0,3.41,0.75,6.05,1.87,7.95c1.12,1.89,3.74,3.03,7.1,3.03c1.5,0,2.99,0,4.86-0.38
			c1.87-0.38,4.12,0.76,4.12,3.03v6.81c0,1.51-1.13,3.03-2.25,3.41s-2.61,0.76-4.11,0.76c-2.62,0.38-4.86,0.38-6.73,0.38
			c-4.49,0-7.85-0.38-10.84-1.51c-2.62-1.14-4.86-2.27-6.36-4.54c-1.49-1.89-2.61-4.54-3.36-7.19c-0.75-3.03-0.75-6.43-0.75-10.22
			v-30.27h-9.72V281.17z"/>
	</g>
</g>
</svg>
