<?xml version="1.0" encoding="utf-8"?>
<!-- Generator: Adobe Illustrator 27.5.0, SVG Export Plug-In . SVG Version: 6.00 Build 0)  -->
<svg version="1.1" id="katman_1" xmlns="http://www.w3.org/2000/svg" xmlns:xlink="http://www.w3.org/1999/xlink" x="0px" y="0px"
	 viewBox="0 0 1280 1024" style="enable-background:new 0 0 1280 1024;" xml:space="preserve">
<style type="text/css">
	.st0{fill:#0068E5;}
	.st1{fill:#00204E;}
</style>
<g>
	<path class="st0" d="M1072.59,448.78v0.28c-21.93-15.6-50.74-17.65-74.65-5.31c-23.91,12.34-38.94,36.98-38.94,63.9
		c0,26.92,15.03,51.58,38.94,63.91c23.91,12.34,52.72,10.28,74.65-5.32v13.31h30.24V426.79L1072.59,448.78z M1030.93,549.37
		c-16.74,0.03-31.88-9.95-38.47-25.33c-6.57-15.39-3.35-33.23,8.23-45.32c11.57-12.1,29.25-16.11,44.91-10.21
		c15.66,5.91,26.29,20.59,26.99,37.32v3.46C1071.71,531.67,1053.32,549.36,1030.93,549.37L1030.93,549.37z M950.62,579.54v-43.49
		l-59.93,43.49H950.62z M1148.44,393.83l-30.34,21.97v30.4l30.32-22.05L1148.44,393.83z M1118.1,465.12l-0.05,114.42h30.23
		l0.13-136.47L1118.1,465.12z M1118.1,465.12"/>
	<path class="st1" d="M464.76,435.72c-29.08,0-55.3,17.51-66.43,44.37c-11.12,26.86-4.99,57.79,15.56,78.36
		c20.55,20.57,51.48,26.73,78.35,15.62c26.87-11.11,44.41-37.32,44.43-66.39c0.01-19.09-7.55-37.38-21.05-50.88
		C502.13,443.3,483.83,435.72,464.76,435.72L464.76,435.72z M464.76,549.37c-16.9,0.01-32.14-10.18-38.61-25.78
		c-6.47-15.62-2.9-33.6,9.07-45.53c11.96-11.95,29.94-15.51,45.55-9.01c15.6,6.48,25.77,21.74,25.73,38.64
		C506.45,530.7,487.78,549.36,464.76,549.37L464.76,549.37z M305.73,435.72c-25.46,0.01-49,13.48-61.91,35.42
		c-12.91,21.93-13.27,49.04-0.95,71.32c12.34,22.26,35.52,36.36,60.95,37.05c25.43,0.68,49.35-12.12,62.87-33.68l-26.2-15.11
		c-8.61,12.99-23.75,20.09-39.25,18.41c-15.48-1.67-28.76-11.84-34.4-26.37h109.22c4.59-21.25-0.68-43.43-14.34-60.34
		c-13.64-16.91-34.23-26.74-55.97-26.73L305.73,435.72z M305.73,465.87c17.23,0.01,32.68,10.6,38.89,26.67h-77.77
		c0.41-1.11,0.87-2.19,1.39-3.23C275.23,474.98,289.78,465.88,305.73,465.87L305.73,465.87z M146.7,435.72
		c-15.12-0.03-29.88,4.75-42.12,13.64l-11.55-8.78c-1.07-0.8-2.38-1.23-3.71-1.24H74.34l-0.16,192.28h30.25v-65.74
		c18.62,13.48,42.57,17.23,64.43,10.11c21.86-7.14,39-24.29,46.09-46.15c7.11-21.87,3.32-45.83-10.17-64.43
		C191.29,446.79,169.69,435.77,146.7,435.72L146.7,435.72z M146.7,549.37c-16.9,0.01-32.14-10.18-38.61-25.78
		c-6.47-15.62-2.88-33.6,9.08-45.53c11.95-11.95,29.93-15.51,45.53-9.01c15.62,6.48,25.77,21.74,25.74,38.64
		C188.42,530.71,169.73,549.37,146.7,549.37L146.7,549.37z M624.06,435.72c-15.04-0.03-29.72,4.69-41.92,13.5l-11.45-8.63
		c-1.08-0.8-2.37-1.24-3.72-1.24H552l-0.15,192.28h30.27v-65.52c18.67,13.36,42.61,16.99,64.41,9.79
		c21.81-7.21,38.85-24.39,45.88-46.25c7.03-21.86,3.2-45.76-10.31-64.33C668.58,446.75,647.03,435.77,624.06,435.72L624.06,435.72z
		 M624.06,549.37c-16.91,0.04-32.17-10.12-38.66-25.73c-6.5-15.62-2.94-33.61,9.01-45.56c11.96-11.96,29.94-15.54,45.56-9.05
		c15.62,6.48,25.78,21.74,25.76,38.65C665.7,530.69,647.07,549.33,624.06,549.37L624.06,549.37z M898.99,522.74
		c7.94-36.24-12.94-72.58-48.23-84c-35.3-11.42-73.49,5.81-88.29,39.84c-14.79,34.01-1.36,73.7,31.05,91.75
		c32.42,18.03,73.24,8.52,94.34-21.98l-24.41-17.62c-8.6,12.99-23.74,20.09-39.24,18.41c-15.5-1.68-28.76-11.86-34.38-26.4H898.99z
		 M828.7,465.87c17.23,0.01,32.68,10.6,38.89,26.67h-77.77c0.41-1.11,0.88-2.19,1.39-3.23C798.2,474.98,812.75,465.88,828.7,465.87
		L828.7,465.87z M711.26,393.83h30.26v185.71h-30.26V393.83z M711.26,393.83"/>
</g>
</svg>
