<?xml version="1.0" encoding="utf-8"?>
<!-- Generator: Adobe Illustrator 27.5.0, SVG Export Plug-In . SVG Version: 6.00 Build 0)  -->
<svg version="1.1" id="katman_1" xmlns="http://www.w3.org/2000/svg" xmlns:xlink="http://www.w3.org/1999/xlink" x="0px" y="0px"
	 viewBox="0 0 2854.67 1804.67" style="enable-background:new 0 0 2854.67 1804.67;" xml:space="preserve">
<style type="text/css">
	.st0{fill:#288CF4;}
	.st1{clip-path:url(#SVGID_00000032621767664902134770000014386405888105992594_);}
	.st2{opacity:0.3;fill:#288CF4;enable-background:new    ;}
</style>
<path class="st0" d="M1200.91,943.44v-58.79c0-48.55,39.37-87.92,87.95-87.92c48.57,0,87.61,38.98,87.61,87.58v59.18h-175.56V943.44
	z M1288.69,735.35c-82.95,0-150.16,67.16-150.21,150.07v183.87h62.49v-63.36h175.56v63.36h62.49V885.42
	c-0.06-82.91-67.32-150.07-150.22-150.07H1288.69z"/>
<path class="st0" d="M933.79,786.28c34.03,0,64.51,14.99,85.37,38.77l-199.29,67.59C824.3,833.18,873.59,786.28,933.79,786.28z
	 M1105.03,863.05c-17.76-78.81-87.75-137.72-171.41-137.72c-97.1,0-175.83,79.26-175.83,176.99c0,97.73,78.73,176.99,175.83,176.99
	c80.56,0,148.45-54.59,169.25-128.98h-65.78c-18.31,38.94-57.6,65.98-103.24,65.98c-45.65,0-81.66-24.72-100.86-61.01l272.1-92.25
	H1105.03z"/>
<path class="st0" d="M724.34,864.94c0-71.24-58.6-129.53-130.24-129.59h-93.44v62.43h93.44c37.02,0,67.46,29.56,67.46,66.34
	s-30.44,67.88-67.46,67.88h-93.44v62.48h76.77l59.71,74.81h81.18l-69.13-87.09c44.32-20.75,75.21-65.62,75.21-117.31L724.34,864.94z
	"/>
<path class="st0" d="M2033.42,735.35h-62.09l-103.2,273.99l-103.21-273.99h-62.09l112.45,298.54c8.66,20.81,29.1,35.4,52.96,35.4
	c26.17,0,48.26-17.67,55.15-41.78L2033.42,735.35z"/>
<path class="st0" d="M1712.84,1006.86h-74.45c-57.36-0.11-103.87-45.8-103.87-103.55V735.35h-62.11v167.24
	c0.17,92.1,74.4,166.69,165.98,166.69h74.45V1006.86z"/>
<path class="st0" d="M2170.28,735.35c-82.95,0-150.16,67.15-150.21,150.04v183.84h62.49V884.62c0-48.55,39.37-87.9,87.94-87.9
	c48.58,0,87.61,39.02,87.61,87.57v184.99h62.5V885.45c-0.06-82.89-67.32-150.04-150.22-150.04L2170.28,735.35z"/>
<path class="st0" d="M2637.85,1006.8H2520.4c-57.51,0-104.19-46.74-104.19-104.48s46.62-104.54,104.19-104.54h117.39v-62.43h-117.45
	c-91.87,0-166.34,74.76-166.34,166.97c0,92.21,74.47,166.97,166.4,166.97h117.45V1006.8z"/>
<path class="st0" d="M2681.6,765.43h4.98c2.71,0,4.81-0.68,6.34-2.08c1.53-1.35,2.32-3.38,2.32-6.02c0-5.06-2.89-7.65-8.72-7.65
	h-4.87v15.75H2681.6z M2699.82,757.11c0,2.36-0.56,4.39-1.7,6.19c-1.13,1.8-2.77,3.21-4.92,4.22l10.53,17.44h-5.38l-9.34-15.98
	h-7.47v15.98h-4.47v-39.1h9.39c4.25,0,7.53,0.9,9.85,2.76C2698.63,750.47,2699.82,753.28,2699.82,757.11z M2658.67,765.43
	c0,5.29,1.31,10.13,3.91,14.63c2.6,4.5,6.17,8.05,10.7,10.69c4.53,2.64,9.39,3.94,14.66,3.94c5.26,0,10.13-1.29,14.6-3.94
	c4.47-2.64,8.04-6.19,10.7-10.69c2.66-4.5,3.96-9.4,3.96-14.69c0-5.29-1.25-9.96-3.79-14.46c-2.55-4.5-6.06-8.05-10.59-10.8
	c-4.53-2.7-9.51-4.11-14.83-4.11c-5.32,0-10.07,1.29-14.6,3.94c-4.53,2.64-8.09,6.19-10.7,10.75c-2.66,4.56-3.96,9.45-3.96,14.63
	L2658.67,765.43z M2654.54,765.43c0-5.91,1.47-11.48,4.42-16.65c2.94-5.18,7.02-9.28,12.22-12.27c5.15-2.98,10.76-4.5,16.76-4.5
	s11.49,1.46,16.64,4.45c5.15,2.98,9.28,7.03,12.28,12.21s4.47,10.75,4.47,16.77c0,6.02-1.42,11.31-4.3,16.43
	c-2.89,5.12-6.91,9.23-12.11,12.32c-5.15,3.09-10.87,4.61-16.98,4.61c-6.12,0-11.78-1.52-16.98-4.61
	c-5.21-3.04-9.23-7.15-12.12-12.27C2655.96,776.8,2654.54,771.29,2654.54,765.43z"/>
<g>
	<defs>
		<rect id="SVGID_1_" x="133.33" y="735.35" width="293.86" height="333.93"/>
	</defs>
	<clipPath id="SVGID_00000062898782398838958130000002710194516836973230_">
		<use xlink:href="#SVGID_1_"  style="overflow:visible;"/>
	</clipPath>
	<g style="clip-path:url(#SVGID_00000062898782398838958130000002710194516836973230_);">
		<path class="st0" d="M277.93,798.47l-91.16,51.43v104.52l94.5,53.43l91.83-51.76l54.1,31.06l-139.25,78.47
			c-4.01,2.34-9.02,2.34-13.02,0l-134.91-76.14c-4.34-2.34-6.68-6.68-6.68-11.69V826.52c0-4.67,2.67-9.35,6.68-11.69l137.92-77.47
			V798.47z"/>
		<path class="st2" d="M304.31,869.59c-3.34,2-7.35-0.33-7.35-4.34V742.36c0-4.01,4.34-6.34,7.68-4.34L410.5,799.8
			c3.34,2,3.34,6.68,0,8.68L304.31,869.59z"/>
		<path class="st0" d="M313.66,890.63c-3.34,2-3.34,6.68,0,8.68l105.86,61.11c3.34,2,7.35-0.33,7.35-4.34l0.33-122.22
			c0-4.01-4.01-6.34-7.35-4.34L313.66,890.63z"/>
	</g>
</g>
</svg>
